<?xml version="1.0" encoding="UTF-8"?>
<svg xmlns="http://www.w3.org/2000/svg" xmlns:xlink="http://www.w3.org/1999/xlink" width="15px" height="15px" viewBox="0 0 15 15" version="1.1">
<g id="surface1">
<path style=" stroke:none;fill-rule:nonzero;fill:rgb(0%,0%,0%);fill-opacity:1;" d="M 13.679688 6.441406 C 11.648438 6.441406 9.617188 6.441406 7.585938 6.441406 C 7.585938 7.285156 7.585938 8.128906 7.585938 8.96875 C 8.761719 8.96875 9.941406 8.96875 11.113281 8.96875 C 10.980469 9.777344 10.5 10.515625 9.820312 10.96875 C 9.390625 11.253906 8.902344 11.441406 8.394531 11.53125 C 7.882812 11.621094 7.355469 11.628906 6.847656 11.527344 C 6.332031 11.421875 5.839844 11.207031 5.40625 10.902344 C 4.71875 10.421875 4.191406 9.710938 3.921875 8.917969 C 3.648438 8.105469 3.644531 7.203125 3.925781 6.394531 C 4.117188 5.824219 4.441406 5.296875 4.863281 4.871094 C 5.386719 4.332031 6.066406 3.953125 6.796875 3.792969 C 7.425781 3.660156 8.085938 3.6875 8.699219 3.871094 C 9.21875 4.03125 9.699219 4.316406 10.09375 4.691406 C 10.492188 4.296875 10.886719 3.898438 11.285156 3.5 C 11.492188 3.289062 11.714844 3.085938 11.914062 2.863281 C 11.3125 2.304688 10.605469 1.855469 9.832031 1.574219 C 8.441406 1.0625 6.871094 1.050781 5.46875 1.535156 C 3.890625 2.078125 2.546875 3.257812 1.800781 4.75 C 1.542969 5.261719 1.355469 5.8125 1.238281 6.375 C 0.953125 7.78125 1.152344 9.28125 1.800781 10.5625 C 2.222656 11.398438 2.828125 12.140625 3.5625 12.722656 C 4.253906 13.277344 5.058594 13.683594 5.914062 13.910156 C 6.992188 14.199219 8.140625 14.195312 9.226562 13.945312 C 10.207031 13.71875 11.136719 13.25 11.875 12.566406 C 12.660156 11.847656 13.21875 10.898438 13.515625 9.878906 C 13.835938 8.769531 13.882812 7.582031 13.679688 6.441406 Z M 13.679688 6.441406 "/>
</g>
</svg>
