<?xml version="1.0" encoding="UTF-8"?>
<svg xmlns="http://www.w3.org/2000/svg" xmlns:xlink="http://www.w3.org/1999/xlink" width="15px" height="15px" viewBox="0 0 15 15" version="1.1">
<g id="surface1">
<path style=" stroke:none;fill-rule:nonzero;fill:rgb(0%,48.235294%,70.980392%);fill-opacity:1;" d="M 0 4.21875 L 3.28125 4.21875 L 3.28125 15 L 0 15 Z M 0 4.21875 "/>
<path style=" stroke:none;fill-rule:nonzero;fill:rgb(0%,48.235294%,70.980392%);fill-opacity:1;" d="M 11.25 4.21875 C 9.375 4.21875 8.855469 4.832031 8.4375 5.625 L 8.4375 4.21875 L 5.15625 4.21875 L 5.15625 15 L 8.4375 15 L 8.4375 8.90625 C 8.4375 7.96875 8.4375 7.03125 10.078125 7.03125 C 11.71875 7.03125 11.71875 7.96875 11.71875 8.90625 L 11.71875 15 L 15 15 L 15 8.90625 C 15 6.09375 14.53125 4.21875 11.25 4.21875 Z M 11.25 4.21875 "/>
<path style=" stroke:none;fill-rule:nonzero;fill:rgb(0%,48.235294%,70.980392%);fill-opacity:1;" d="M 3.28125 1.640625 C 3.28125 2.546875 2.546875 3.28125 1.640625 3.28125 C 0.734375 3.28125 0 2.546875 0 1.640625 C 0 0.734375 0.734375 0 1.640625 0 C 2.546875 0 3.28125 0.734375 3.28125 1.640625 Z M 3.28125 1.640625 "/>
</g>
</svg>
