<?xml version="1.0" encoding="UTF-8"?>
<svg xmlns="http://www.w3.org/2000/svg" xmlns:xlink="http://www.w3.org/1999/xlink" width="15px" height="15px" viewBox="0 0 15 15" version="1.1">
<g id="surface1">
<path style=" stroke:none;fill-rule:nonzero;fill:rgb(74.117647%,3.137255%,10.980392%);fill-opacity:1;" d="M 7.683594 0.761719 C 4 0.761719 2.039062 3.128906 2.039062 5.710938 C 2.039062 6.90625 2.707031 8.398438 3.773438 8.871094 C 3.9375 8.945312 4.027344 8.914062 4.0625 8.761719 C 4.09375 8.648438 4.234375 8.097656 4.300781 7.835938 C 4.324219 7.753906 4.3125 7.683594 4.246094 7.601562 C 3.890625 7.191406 3.609375 6.441406 3.609375 5.742188 C 3.609375 3.941406 5.035156 2.191406 7.464844 2.191406 C 9.566406 2.191406 11.035156 3.5625 11.035156 5.515625 C 11.035156 7.730469 9.867188 9.257812 8.351562 9.257812 C 7.511719 9.257812 6.886719 8.597656 7.085938 7.78125 C 7.324219 6.808594 7.792969 5.761719 7.792969 5.058594 C 7.792969 4.429688 7.4375 3.910156 6.714844 3.910156 C 5.859375 3.910156 5.167969 4.757812 5.167969 5.898438 C 5.167969 6.621094 5.421875 7.109375 5.421875 7.109375 C 5.421875 7.109375 4.578125 10.53125 4.421875 11.171875 C 4.15625 12.253906 4.457031 14.007812 4.484375 14.160156 C 4.5 14.242188 4.59375 14.269531 4.644531 14.199219 C 4.726562 14.089844 5.75 12.628906 6.035156 11.574219 C 6.140625 11.1875 6.566406 9.625 6.566406 9.625 C 6.847656 10.136719 7.660156 10.5625 8.527344 10.5625 C 11.101562 10.5625 12.960938 8.292969 12.960938 5.480469 C 12.949219 2.78125 10.648438 0.761719 7.683594 0.761719 "/>
</g>
</svg>
