<?xml version="1.0" encoding="UTF-8"?>
<svg xmlns="http://www.w3.org/2000/svg" xmlns:xlink="http://www.w3.org/1999/xlink" width="15px" height="15px" viewBox="0 0 15 15" version="1.1">
<g id="surface1">
<path style=" stroke:none;fill-rule:evenodd;fill:rgb(0%,66.666667%,92.54902%);fill-opacity:1;" d="M 15 2.730469 C 14.449219 2.980469 13.855469 3.148438 13.234375 3.226562 C 13.867188 2.835938 14.355469 2.21875 14.585938 1.480469 C 13.992188 1.84375 13.332031 2.105469 12.628906 2.246094 C 12.070312 1.632812 11.269531 1.25 10.386719 1.25 C 8.6875 1.25 7.308594 2.664062 7.308594 4.40625 C 7.308594 4.652344 7.335938 4.894531 7.386719 5.125 C 4.832031 4.992188 2.5625 3.738281 1.042969 1.824219 C 0.777344 2.292969 0.628906 2.835938 0.628906 3.414062 C 0.628906 4.507812 1.171875 5.476562 1.996094 6.042969 C 1.492188 6.027344 1.015625 5.882812 0.601562 5.648438 L 0.601562 5.6875 C 0.601562 7.214844 1.664062 8.492188 3.070312 8.78125 C 2.8125 8.855469 2.542969 8.890625 2.261719 8.890625 C 2.0625 8.890625 1.871094 8.871094 1.683594 8.835938 C 2.074219 10.085938 3.207031 11 4.554688 11.023438 C 3.503906 11.871094 2.175781 12.378906 0.734375 12.378906 C 0.488281 12.378906 0.238281 12.363281 0 12.332031 C 1.363281 13.226562 2.980469 13.75 4.714844 13.75 C 10.378906 13.75 13.472656 8.941406 13.472656 4.773438 C 13.472656 4.636719 13.472656 4.496094 13.464844 4.363281 C 14.066406 3.917969 14.589844 3.363281 15 2.730469 "/>
</g>
</svg>
